<svg xmlns="http://www.w3.org/2000/svg" viewBox="0 0 24 24" fill="none"> <title>Snow</title> <g stroke="#75EBF2" stroke-width="2.6" stroke-opacity="0.28" stroke-linecap="round" stroke-linejoin="round"> <path d="M16 16c2.2 0 4-1.8 4-4a3 3 0 0 0-3-3 3 3 0 0 0-3 3v0a3 3 0 1 0 0-6 3 3 0 0 0-3 3v0a4 4 0 1 0-4 4h13"/> <path d="M9 19 l 2 2 M 11 19 l -2 2 M13 19 l 2 2 M 15 19 l -2 2 M17 19 l 2 2 M 19 19 l -2 2"/> </g> <g stroke="#62BCB5" stroke-width="1.6" stroke-linecap="round" stroke-linejoin="round"> <path d="M16 16c2.2 0 4-1.8 4-4a3 3 0 0 0-3-3 3 3 0 0 0-3 3v0a3 3 0 1 0 0-6 3 3 0 0 0-3 3v0a4 4 0 1 0-4 4h13"/> <path d="M9 19 l 2 2 M 11 19 l -2 2 M13 19 l 2 2 M 15 19 l -2 2 M17 19 l 2 2 M 19 19 l -2 2"/> </g> </svg>