<svg xmlns="http://www.w3.org/2000/svg" viewBox="0 0 24 24" fill="none" stroke="currentColor" stroke-width="2" stroke-linecap="round" stroke-linejoin="round">
  <path d="M17.5 19c0-1.7-1.3-3-3-3h-1.6c-.6-2.3-2.7-4-5.2-4-2.2 0-4.1 1.3-4.9 3.2C2.1 15.6 1.8 16.4 2 17.2c.4 1.8 2 3.1 3.9 3.1h8.7c1.6 0 2.9-1.3 2.9-3z" transform="translate(0, -2)" />
  <line x1="8" y1="19" x2="8" y2="19.01" />
  <line x1="12" y1="21" x2="12" y2="21.01" />
  <line x1="16" y1="19" x2="16" y2="19.01" />
  <path d="M8 19 m-1 0 l2 0 m-1 -1 l0 2 m-1 -1 l2 0" transform="scale(0.5) translate(8, 20)" /> 
</svg>
