<svg xmlns="http://www.w3.org/2000/svg" viewBox="0 0 24 24" fill="none" stroke="currentColor" stroke-width="2" stroke-linecap="round" stroke-linejoin="round">
   <path d="M17.5 19c0-1.7-1.3-3-3-3h-1.6c-.6-2.3-2.7-4-5.2-4-2.2 0-4.1 1.3-4.9 3.2C2.1 15.6 1.8 16.4 2 17.2c.4 1.8 2 3.1 3.9 3.1h8.7c1.6 0 2.9-1.3 2.9-3z" transform="translate(0, -2)" />
   <path d="M8 19l0 2M12 20l0 2M16 19l0 2" />
   <path d="M6 18l4 4M10 18l-4 4" transform="scale(0.5) translate(16, 38)" />
   <path d="M14 18l4 4M18 18l-4 4" transform="scale(0.5) translate(28, 38)" />
</svg>
