<svg viewBox="0 0 24 24" fill="none" xmlns="http://www.w3.org/2000/svg">
  <title>Weather Partly Cloudy</title>
  <path d="M12 4a8 8 0 0 1 7.8 6.5" stroke="#75EBF2" stroke-opacity="0.28" stroke-width="2.8" stroke-linecap="round" stroke-linejoin="round" />
  <path d="M12 2v2 M18.5 3.5l1.4 1.4 M22 8h-2" stroke="#75EBF2" stroke-opacity="0.28" stroke-width="2.8" stroke-linecap="round" stroke-linejoin="round" />
  <path d="M6 18h11.5c2.5 0 4.5-2 4.5-4.5s-2-4.5-4.5-4.5h-.5c-.8-2.3-3-4-5.2-4-2.8 0-5.1 2.3-5.1 5.1 0 .2 0 .5.1.7-1.6.5-2.9 2.3-2.9 4.1 0 1.7 1.3 3 2.9 3z" stroke="#75EBF2" stroke-opacity="0.28" stroke-width="2.8" stroke-linecap="round" stroke-linejoin="round" />
  <path d="M12 4a8 8 0 0 1 7.8 6.5" stroke="#62BCB5" stroke-width="1.6" stroke-linecap="round" stroke-linejoin="round" />
  <path d="M12 2v2 M18.5 3.5l1.4 1.4 M22 8h-2" stroke="#62BCB5" stroke-width="1.6" stroke-linecap="round" stroke-linejoin="round" />
  <path d="M6 18h11.5c2.5 0 4.5-2 4.5-4.5s-2-4.5-4.5-4.5h-.5c-.8-2.3-3-4-5.2-4-2.8 0-5.1 2.3-5.1 5.1 0 .2 0 .5.1.7-1.6.5-2.9 2.3-2.9 4.1 0 1.7 1.3 3 2.9 3z" stroke="#62BCB5" stroke-width="1.6" stroke-linecap="round" stroke-linejoin="round" />
</svg>