<svg viewBox="0 0 24 24" fill="none" xmlns="http://www.w3.org/2000/svg">
  <title>weather_wind</title>
  <path d="M4 12h12a3 3 0 0 1 0 6h-2 M6 9h10a3 3 0 0 0 0-6" stroke="#75EBF2" stroke-width="4" stroke-opacity="0.15" stroke-linecap="round" stroke-linejoin="round" />
  <path d="M4 12h12a3 3 0 0 1 0 6h-2 M6 9h10a3 3 0 0 0 0-6" stroke="#AEE9E5" stroke-width="1.2" stroke-opacity="0.6" transform="translate(-0.4, -0.3)" stroke-linecap="round" stroke-linejoin="round" />
  <path d="M4 12h12a3 3 0 0 1 0 6h-2 M6 9h10a3 3 0 0 0 0-6" stroke="#75EBF2" stroke-width="1.0" stroke-opacity="0.8" transform="translate(0.3, 0.4)" stroke-linecap="round" stroke-linejoin="round" />
  <path d="M4 12h12a3 3 0 0 1 0 6h-2 M6 9h10a3 3 0 0 0 0-6" stroke="#62BCB5" stroke-width="1.6" stroke-opacity="1.0" stroke-linecap="round" stroke-linejoin="round" />
</svg>