<svg viewBox="0 0 24 24" fill="none" xmlns="http://www.w3.org/2000/svg">
  <title>weather_showers</title>
  <path d="M6.5 17.5h11c2.5 0 4.5-2 4.5-4.5S20 8.5 17.5 8.5c-.3 0-.5 0-.8.1-.8-2.3-3-4-5.2-4-2.8 0-5.1 2.3-5.1 5.1 0 .2 0 .5.1.7-1.6.5-2.9 2.3-2.9 4.1 0 1.7 1.3 3 2.9 3z" stroke="currentColor" stroke-width="3" stroke-opacity="0.2" stroke-linecap="round" stroke-linejoin="round" />
  <path d="M9 19v3 M12 19v3 M15 19v3" stroke="currentColor" stroke-width="3" stroke-opacity="0.2" stroke-linecap="round" stroke-linejoin="round" />
  <path d="M6.5 17.5h11c2.5 0 4.5-2 4.5-4.5S20 8.5 17.5 8.5c-.3 0-.5 0-.8.1-.8-2.3-3-4-5.2-4-2.8 0-5.1 2.3-5.1 5.1 0 .2 0 .5.1.7-1.6.5-2.9 2.3-2.9 4.1 0 1.7 1.3 3 2.9 3z" stroke="currentColor" stroke-width="1.6" stroke-linecap="round" stroke-linejoin="round" />
  <path d="M9 19v3 M12 19v3 M15 19v3" stroke="currentColor" stroke-width="1.6" stroke-linecap="round" stroke-linejoin="round" />
</svg>