<svg xmlns="http://www.w3.org/2000/svg" viewBox="0 0 24 24" fill="none"> <title>Cloud</title> <path d="M16 16c2.2 0 4-1.8 4-4a3 3 0 0 0-3-3 3 3 0 0 0-3 3v0a3 3 0 1 0 0-6 3 3 0 0 0-3 3v0a4 4 0 1 0-4 4h13" stroke="currentColor" stroke-width="2.6" stroke-opacity="0.28" stroke-linecap="round" stroke-linejoin="round"/> <path d="M16 16c2.2 0 4-1.8 4-4a3 3 0 0 0-3-3 3 3 0 0 0-3 3v0a3 3 0 1 0 0-6 3 3 0 0 0-3 3v0a4 4 0 1 0-4 4h13" stroke="currentColor" stroke-width="1.6" stroke-linecap="round" stroke-linejoin="round"/> </svg>